<?xml version="1.0" encoding="UTF-8"?>
<svg xmlns="http://www.w3.org/2000/svg" xmlns:xlink="http://www.w3.org/1999/xlink" width="720px" height="720px" viewBox="0 0 270 270" version="1.1">
<g id="surface1">
<path style=" stroke:none;fill-rule:nonzero;fill:rgb(0%,0%,0%);fill-opacity:1;" d="M 10 45 L 10 80 L 80 80 L 80 10 L 10 10 Z M 70 45 L 70 70 L 20 70 L 20 20 L 70 20 Z M 70 45 "/>
<path style=" stroke:none;fill-rule:nonzero;fill:rgb(0%,0%,0%);fill-opacity:1;" d="M 30 45 L 30 60 L 60 60 L 60 30 L 30 30 Z M 30 45 "/>
<path style=" stroke:none;fill-rule:nonzero;fill:rgb(0%,0%,0%);fill-opacity:1;" d="M 100 15 L 100 20 L 90 20 L 90 40 L 100 40 L 100 30 L 130 30 L 130 10 L 100 10 Z M 100 15 "/>
<path style=" stroke:none;fill-rule:nonzero;fill:rgb(0%,0%,0%);fill-opacity:1;" d="M 140 15 L 140 20 L 150 20 L 150 50 L 120 50 L 120 40 L 110 40 L 110 50 L 90 50 L 90 90 L 70 90 L 70 100 L 50 100 L 50 90 L 40 90 L 40 100 L 30 100 L 30 90 L 10 90 L 10 100 L 20 100 L 20 130 L 10 130 L 10 140 L 20 140 L 20 150 L 10 150 L 10 160 L 20 160 L 20 170 L 10 170 L 10 180 L 30 180 L 30 170 L 50 170 L 50 180 L 60 180 L 60 160 L 80 160 L 80 170 L 70 170 L 70 180 L 90 180 L 90 200 L 100 200 L 100 220 L 90 220 L 90 230 L 100 230 L 100 240 L 90 240 L 90 260 L 100 260 L 100 250 L 120 250 L 120 260 L 150 260 L 150 240 L 140 240 L 140 250 L 120 250 L 120 240 L 110 240 L 110 230 L 100 230 L 100 220 L 110 220 L 110 210 L 120 210 L 120 220 L 130 220 L 130 230 L 150 230 L 150 220 L 160 220 L 160 230 L 180 230 L 180 220 L 200 220 L 200 240 L 220 240 L 220 250 L 230 250 L 230 240 L 240 240 L 240 230 L 250 230 L 250 240 L 260 240 L 260 210 L 250 210 L 250 200 L 260 200 L 260 180 L 250 180 L 250 190 L 240 190 L 240 200 L 230 200 L 230 180 L 240 180 L 240 170 L 250 170 L 250 160 L 260 160 L 260 130 L 240 130 L 240 140 L 230 140 L 230 130 L 220 130 L 220 120 L 200 120 L 200 100 L 220 100 L 220 90 L 190 90 L 190 100 L 180 100 L 180 90 L 170 90 L 170 110 L 190 110 L 190 120 L 160 120 L 160 130 L 170 130 L 170 140 L 180 140 L 180 150 L 200 150 L 200 160 L 210 160 L 210 170 L 170 170 L 170 160 L 160 160 L 160 140 L 150 140 L 150 100 L 160 100 L 160 70 L 170 70 L 170 80 L 180 80 L 180 50 L 170 50 L 170 40 L 160 40 L 160 30 L 170 30 L 170 20 L 180 20 L 180 10 L 140 10 Z M 120 55 L 120 60 L 150 60 L 150 90 L 110 90 L 110 80 L 100 80 L 100 60 L 110 60 L 110 50 L 120 50 Z M 100 95 L 100 100 L 130 100 L 130 110 L 140 110 L 140 120 L 130 120 L 130 130 L 140 130 L 140 140 L 150 140 L 150 160 L 140 160 L 140 170 L 150 170 L 150 190 L 160 190 L 160 200 L 170 200 L 170 220 L 160 220 L 160 210 L 140 210 L 140 220 L 130 220 L 130 210 L 140 210 L 140 200 L 150 200 L 150 190 L 140 190 L 140 170 L 130 170 L 130 160 L 140 160 L 140 140 L 130 140 L 130 150 L 120 150 L 120 110 L 100 110 L 100 120 L 90 120 L 90 140 L 80 140 L 80 150 L 50 150 L 50 140 L 40 140 L 40 160 L 20 160 L 20 150 L 30 150 L 30 140 L 40 140 L 40 130 L 50 130 L 50 140 L 60 140 L 60 130 L 70 130 L 70 120 L 90 120 L 90 90 L 100 90 Z M 50 105 L 50 110 L 60 110 L 60 120 L 40 120 L 40 100 L 50 100 Z M 80 105 L 80 110 L 70 110 L 70 100 L 80 100 Z M 200 125 L 200 130 L 220 130 L 220 150 L 230 150 L 230 160 L 240 160 L 240 140 L 250 140 L 250 160 L 240 160 L 240 170 L 220 170 L 220 150 L 210 150 L 210 140 L 200 140 L 200 130 L 190 130 L 190 120 L 200 120 Z M 110 135 L 110 140 L 100 140 L 100 130 L 110 130 Z M 100 155 L 100 160 L 120 160 L 120 190 L 130 190 L 130 200 L 120 200 L 120 190 L 110 190 L 110 200 L 100 200 L 100 190 L 110 190 L 110 170 L 100 170 L 100 180 L 90 180 L 90 150 L 100 150 Z M 210 195 L 210 210 L 180 210 L 180 180 L 210 180 Z M 240 215 L 240 220 L 230 220 L 230 210 L 240 210 Z M 230 235 L 230 240 L 220 240 L 220 230 L 230 230 Z M 230 235 "/>
<path style=" stroke:none;fill-rule:nonzero;fill:rgb(0%,0%,0%);fill-opacity:1;" d="M 110 70 L 110 80 L 120 80 L 120 60 L 110 60 Z M 110 70 "/>
<path style=" stroke:none;fill-rule:nonzero;fill:rgb(0%,0%,0%);fill-opacity:1;" d="M 130 75 L 130 80 L 140 80 L 140 70 L 130 70 Z M 130 75 "/>
<path style=" stroke:none;fill-rule:nonzero;fill:rgb(0%,0%,0%);fill-opacity:1;" d="M 70 135 L 70 140 L 80 140 L 80 130 L 70 130 Z M 70 135 "/>
<path style=" stroke:none;fill-rule:nonzero;fill:rgb(0%,0%,0%);fill-opacity:1;" d="M 190 195 L 190 200 L 200 200 L 200 190 L 190 190 Z M 190 195 "/>
<path style=" stroke:none;fill-rule:nonzero;fill:rgb(0%,0%,0%);fill-opacity:1;" d="M 190 45 L 190 80 L 260 80 L 260 10 L 190 10 Z M 250 45 L 250 70 L 200 70 L 200 20 L 250 20 Z M 250 45 "/>
<path style=" stroke:none;fill-rule:nonzero;fill:rgb(0%,0%,0%);fill-opacity:1;" d="M 210 45 L 210 60 L 240 60 L 240 30 L 210 30 Z M 210 45 "/>
<path style=" stroke:none;fill-rule:nonzero;fill:rgb(0%,0%,0%);fill-opacity:1;" d="M 230 95 L 230 100 L 250 100 L 250 110 L 240 110 L 240 120 L 260 120 L 260 100 L 250 100 L 250 90 L 230 90 Z M 230 95 "/>
<path style=" stroke:none;fill-rule:nonzero;fill:rgb(0%,0%,0%);fill-opacity:1;" d="M 10 225 L 10 260 L 80 260 L 80 190 L 10 190 Z M 70 225 L 70 250 L 20 250 L 20 200 L 70 200 Z M 70 225 "/>
<path style=" stroke:none;fill-rule:nonzero;fill:rgb(0%,0%,0%);fill-opacity:1;" d="M 30 225 L 30 240 L 60 240 L 60 210 L 30 210 Z M 30 225 "/>
<path style=" stroke:none;fill-rule:nonzero;fill:rgb(0%,0%,0%);fill-opacity:1;" d="M 170 245 L 170 250 L 160 250 L 160 260 L 180 260 L 180 240 L 170 240 Z M 170 245 "/>
<path style=" stroke:none;fill-rule:nonzero;fill:rgb(0%,0%,0%);fill-opacity:1;" d="M 200 255 L 200 260 L 210 260 L 210 250 L 200 250 Z M 200 255 "/>
<path style=" stroke:none;fill-rule:nonzero;fill:rgb(0%,0%,0%);fill-opacity:1;" d="M 240 255 L 240 260 L 260 260 L 260 250 L 240 250 Z M 240 255 "/>
</g>
</svg>
