<?xml version="1.0" standalone="no"?>
<!DOCTYPE svg PUBLIC "-//W3C//DTD SVG 20010904//EN"
 "http://www.w3.org/TR/2001/REC-SVG-20010904/DTD/svg10.dtd">
<svg version="1.0" xmlns="http://www.w3.org/2000/svg"
 width="540.000000pt" height="540.000000pt" viewBox="0 0 540.000000 540.000000"
 preserveAspectRatio="xMidYMid meet">
<metadata>
Created by potrace 1.16, written by Peter Selinger 2001-2019
</metadata>
<g transform="translate(0.000000,540.000000) scale(0.100000,-0.100000)"
fill="#000000" stroke="none">
<path d="M200 4500 l0 -700 700 0 700 0 0 700 0 700 -700 0 -700 0 0 -700z
m1200 0 l0 -500 -500 0 -500 0 0 500 0 500 500 0 500 0 0 -500z"/>
<path d="M600 4500 l0 -300 300 0 300 0 0 300 0 300 -300 0 -300 0 0 -300z"/>
<path d="M2000 5100 l0 -100 -100 0 -100 0 0 -200 0 -200 100 0 100 0 0 100 0
100 300 0 300 0 0 200 0 200 -300 0 -300 0 0 -100z"/>
<path d="M2800 5100 l0 -100 100 0 100 0 0 -300 0 -300 -300 0 -300 0 0 100 0
100 -100 0 -100 0 0 -100 0 -100 -200 0 -200 0 0 -400 0 -400 -200 0 -200 0 0
-100 0 -100 -200 0 -200 0 0 100 0 100 -100 0 -100 0 0 -100 0 -100 -100 0
-100 0 0 100 0 100 -200 0 -200 0 0 -100 0 -100 100 0 100 0 0 -300 0 -300
-100 0 -100 0 0 -100 0 -100 100 0 100 0 0 -100 0 -100 -100 0 -100 0 0 -100
0 -100 100 0 100 0 0 -100 0 -100 -100 0 -100 0 0 -100 0 -100 200 0 200 0 0
100 0 100 200 0 200 0 0 -100 0 -100 100 0 100 0 0 200 0 200 200 0 200 0 0
-100 0 -100 -100 0 -100 0 0 -100 0 -100 200 0 200 0 0 -200 0 -200 100 0 100
0 0 -200 0 -200 -100 0 -100 0 0 -100 0 -100 100 0 100 0 0 -100 0 -100 -100
0 -100 0 0 -200 0 -200 100 0 100 0 0 100 0 100 200 0 200 0 0 -100 0 -100
300 0 300 0 0 200 0 200 -100 0 -100 0 0 -100 0 -100 -200 0 -200 0 0 100 0
100 -100 0 -100 0 0 100 0 100 -100 0 -100 0 0 100 0 100 100 0 100 0 0 100 0
100 100 0 100 0 0 -100 0 -100 100 0 100 0 0 -100 0 -100 200 0 200 0 0 100 0
100 100 0 100 0 0 -100 0 -100 200 0 200 0 0 100 0 100 200 0 200 0 0 -200 0
-200 200 0 200 0 0 -100 0 -100 100 0 100 0 0 100 0 100 100 0 100 0 0 100 0
100 100 0 100 0 0 -100 0 -100 100 0 100 0 0 300 0 300 -100 0 -100 0 0 100 0
100 100 0 100 0 0 200 0 200 -100 0 -100 0 0 -100 0 -100 -100 0 -100 0 0
-100 0 -100 -100 0 -100 0 0 200 0 200 100 0 100 0 0 100 0 100 100 0 100 0 0
100 0 100 100 0 100 0 0 300 0 300 -200 0 -200 0 0 -100 0 -100 -100 0 -100 0
0 100 0 100 -100 0 -100 0 0 100 0 100 -200 0 -200 0 0 200 0 200 200 0 200 0
0 100 0 100 -300 0 -300 0 0 -100 0 -100 -100 0 -100 0 0 100 0 100 -100 0
-100 0 0 -200 0 -200 200 0 200 0 0 -100 0 -100 -300 0 -300 0 0 -100 0 -100
100 0 100 0 0 -100 0 -100 100 0 100 0 0 -100 0 -100 200 0 200 0 0 -100 0
-100 100 0 100 0 0 -100 0 -100 -400 0 -400 0 0 100 0 100 -100 0 -100 0 0
200 0 200 -100 0 -100 0 0 400 0 400 100 0 100 0 0 300 0 300 100 0 100 0 0
-100 0 -100 100 0 100 0 0 300 0 300 -100 0 -100 0 0 100 0 100 -100 0 -100 0
0 100 0 100 100 0 100 0 0 100 0 100 100 0 100 0 0 100 0 100 -400 0 -400 0 0
-100z m-400 -800 l0 -100 300 0 300 0 0 -300 0 -300 -400 0 -400 0 0 100 0
100 -100 0 -100 0 0 200 0 200 100 0 100 0 0 100 0 100 100 0 100 0 0 -100z
m-400 -800 l0 -100 300 0 300 0 0 -100 0 -100 100 0 100 0 0 -100 0 -100 -100
0 -100 0 0 -100 0 -100 100 0 100 0 0 -100 0 -100 100 0 100 0 0 -200 0 -200
-100 0 -100 0 0 -100 0 -100 100 0 100 0 0 -200 0 -200 100 0 100 0 0 -100 0
-100 100 0 100 0 0 -200 0 -200 -100 0 -100 0 0 100 0 100 -200 0 -200 0 0
-100 0 -100 -100 0 -100 0 0 100 0 100 100 0 100 0 0 100 0 100 100 0 100 0 0
100 0 100 -100 0 -100 0 0 200 0 200 -100 0 -100 0 0 100 0 100 100 0 100 0 0
200 0 200 -100 0 -100 0 0 -100 0 -100 -100 0 -100 0 0 400 0 400 -200 0 -200
0 0 -100 0 -100 -100 0 -100 0 0 -200 0 -200 -100 0 -100 0 0 -100 0 -100
-300 0 -300 0 0 100 0 100 -100 0 -100 0 0 -200 0 -200 -200 0 -200 0 0 100 0
100 100 0 100 0 0 100 0 100 100 0 100 0 0 100 0 100 100 0 100 0 0 -100 0
-100 100 0 100 0 0 100 0 100 100 0 100 0 0 100 0 100 200 0 200 0 0 300 0
300 100 0 100 0 0 -100z m-1000 -200 l0 -100 100 0 100 0 0 -100 0 -100 -200
0 -200 0 0 200 0 200 100 0 100 0 0 -100z m600 0 l0 -100 -100 0 -100 0 0 100
0 100 100 0 100 0 0 -100z m2400 -400 l0 -100 200 0 200 0 0 -200 0 -200 100
0 100 0 0 -100 0 -100 100 0 100 0 0 200 0 200 100 0 100 0 0 -200 0 -200
-100 0 -100 0 0 -100 0 -100 -200 0 -200 0 0 200 0 200 -100 0 -100 0 0 100 0
100 -100 0 -100 0 0 100 0 100 -100 0 -100 0 0 100 0 100 100 0 100 0 0 -100z
m-1800 -200 l0 -100 -100 0 -100 0 0 100 0 100 100 0 100 0 0 -100z m-200
-400 l0 -100 200 0 200 0 0 -300 0 -300 100 0 100 0 0 -100 0 -100 -100 0
-100 0 0 100 0 100 -100 0 -100 0 0 -100 0 -100 -100 0 -100 0 0 100 0 100
100 0 100 0 0 200 0 200 -100 0 -100 0 0 -100 0 -100 -100 0 -100 0 0 300 0
300 100 0 100 0 0 -100z m2200 -800 l0 -300 -300 0 -300 0 0 300 0 300 300 0
300 0 0 -300z m600 -400 l0 -100 -100 0 -100 0 0 100 0 100 100 0 100 0 0
-100z m-200 -400 l0 -100 -100 0 -100 0 0 100 0 100 100 0 100 0 0 -100z"/>
<path d="M2200 4000 l0 -200 100 0 100 0 0 200 0 200 -100 0 -100 0 0 -200z"/>
<path d="M2600 3900 l0 -100 100 0 100 0 0 100 0 100 -100 0 -100 0 0 -100z"/>
<path d="M1400 2700 l0 -100 100 0 100 0 0 100 0 100 -100 0 -100 0 0 -100z"/>
<path d="M3800 1500 l0 -100 100 0 100 0 0 100 0 100 -100 0 -100 0 0 -100z"/>
<path d="M3800 4500 l0 -700 700 0 700 0 0 700 0 700 -700 0 -700 0 0 -700z
m1200 0 l0 -500 -500 0 -500 0 0 500 0 500 500 0 500 0 0 -500z"/>
<path d="M4200 4500 l0 -300 300 0 300 0 0 300 0 300 -300 0 -300 0 0 -300z"/>
<path d="M4600 3500 l0 -100 200 0 200 0 0 -100 0 -100 -100 0 -100 0 0 -100
0 -100 200 0 200 0 0 200 0 200 -100 0 -100 0 0 100 0 100 -200 0 -200 0 0
-100z"/>
<path d="M200 900 l0 -700 700 0 700 0 0 700 0 700 -700 0 -700 0 0 -700z
m1200 0 l0 -500 -500 0 -500 0 0 500 0 500 500 0 500 0 0 -500z"/>
<path d="M600 900 l0 -300 300 0 300 0 0 300 0 300 -300 0 -300 0 0 -300z"/>
<path d="M3400 500 l0 -100 -100 0 -100 0 0 -100 0 -100 200 0 200 0 0 200 0
200 -100 0 -100 0 0 -100z"/>
<path d="M4000 300 l0 -100 100 0 100 0 0 100 0 100 -100 0 -100 0 0 -100z"/>
<path d="M4800 300 l0 -100 200 0 200 0 0 100 0 100 -200 0 -200 0 0 -100z"/>
</g>
</svg>
